<svg width="9" height="14" viewBox="0 0 9 14" fill="none" xmlns="http://www.w3.org/2000/svg">
<path d="M4.49859 0C4.25567 0 4.05947 0.0722367 3.90999 0.21671C3.7605 0.361184 3.68576 0.550914 3.68576 0.7859V6.57963L3.77265 8.54047L4.23792 8.25064L2.60946 6.50129L1.35098 5.33157C1.27623 5.26197 1.19121 5.20541 1.09592 5.16189C1.00062 5.11837 0.892244 5.09661 0.770787 5.09661C0.552163 5.09661 0.369043 5.16449 0.221426 5.30025C0.0738087 5.43604 0 5.61098 0 5.82508C0 6.02872 0.0840858 6.20974 0.252257 6.36814L3.89878 9.77283C3.97539 9.84422 4.06695 9.89992 4.17346 9.93993C4.27996 9.97998 4.38834 10 4.49859 10C4.60883 10 4.71768 9.97998 4.82511 9.93993C4.93255 9.89992 5.02365 9.84422 5.0984 9.77283L8.74772 6.36814C8.9159 6.20974 9 6.02872 9 5.82508C9 5.61098 8.92619 5.43604 8.77857 5.30025C8.63095 5.16449 8.44782 5.09661 8.22918 5.09661C8.10774 5.09661 7.9989 5.11837 7.90265 5.16189C7.80644 5.20541 7.72188 5.26197 7.64898 5.33157L6.38493 6.50129L4.75645 8.25064L5.22172 8.54047L5.30863 6.57963V0.7859C5.30863 0.550914 5.23388 0.361184 5.08438 0.21671C4.93491 0.0722367 4.73965 0 4.49859 0Z" fill="#00AEEF"/>
<line x1="8.25" y1="12.75" x2="0.75" y2="12.75" stroke="#00AEEF" stroke-width="1.5" stroke-linecap="round"/>
</svg>
